<?xml version="1.0"?>
<svg xmlns="http://www.w3.org/2000/svg" xmlns:xlink="http://www.w3.org/1999/xlink" version="1.1" id="Capa_1" x="0px" y="0px" viewBox="0 0 508 508" style="enable-background:new 0 0 508 508;" xml:space="preserve" width="512px" height="512px"><g><g>
	<g>
		<g>
			<path d="M0,0v114.7v16.4V508h508V131.1v-16.4V0H0z M491.6,491.6H16.4V131.1h475.2V491.6z M491.6,114.7H16.4V16.4h475.2V114.7z" data-original="#000000" class="active-path" data-old_color="#000000" fill="#91C11E"/>
			<rect x="41" y="57.4" width="16.4" height="16.4" data-original="#000000" class="active-path" data-old_color="#000000" fill="#91C11E"/>
			<rect x="73.7" y="57.4" width="16.4" height="16.4" data-original="#000000" class="active-path" data-old_color="#000000" fill="#91C11E"/>
			<rect x="106.5" y="57.4" width="16.4" height="16.4" data-original="#000000" class="active-path" data-old_color="#000000" fill="#91C11E"/>
			<rect x="262.2" y="57.4" width="204.8" height="16.4" data-original="#000000" class="active-path" data-old_color="#000000" fill="#91C11E"/>
			<path d="M185.4,409.7h14.4c-6.3,7-10.2,16.1-10.2,26.2c0,21.7,17.6,39.3,39.3,39.3c21.7,0,39.3-17.6,39.3-39.3     c0-10.1-3.9-19.2-10.2-26.2h72c-6.3,7-10.2,16.1-10.2,26.2c0,21.7,17.6,39.3,39.3,39.3s39.3-17.6,39.3-39.3     c0-10.1-3.9-19.2-10.2-26.2h13.4v-16.4H198.7l-6.5-31.1h204.3l24.9-140.9H163l-15.3-73.7H90.1V164h44.3L185.4,409.7z M359,413     c12.7,0,22.9,10.3,22.9,22.9c0.1,12.6-10.2,22.9-22.9,22.9c-12.6,0-22.9-10.3-22.9-22.9C336.1,423.2,346.4,413,359,413z      M228.8,413c12.7,0,22.9,10.3,22.9,22.9c0.1,12.6-10.2,22.9-22.9,22.9c-12.7,0-22.9-10.3-22.9-22.9     C205.9,423.2,216.2,413,228.8,413z M401.9,237.6l-19.1,108.1H189.4l-22.2-108.1H401.9z" data-original="#000000" class="active-path" data-old_color="#000000" fill="#91C11E"/>
		</g>
	</g>
</g></g> </svg>
